<svg width="135" height="128" viewBox="0 0 135 128" fill="none" xmlns="http://www.w3.org/2000/svg">
<path d="M0 31.3287C0 14.0263 14.0263 0 31.3287 0H102.937C120.239 0 134.266 14.0263 134.266 31.3287V96.6713C134.266 113.974 120.239 128 102.937 128H31.3287C14.0263 128 0 113.974 0 96.6713V31.3287Z" fill="black"/>
<path d="M59.2895 75.9912V91.5109C54.6186 93.771 49.9978 94.9011 45.4273 94.9011C38.3958 94.9011 31.8665 92.3145 25.8395 87.1412C22.0726 83.9268 19.3604 80.5115 17.703 76.8953C16.0455 73.2288 15.2168 68.8592 15.2168 63.7865C15.2168 55.4993 18.1801 48.4426 24.1067 42.6165C30.0835 36.7401 37.2155 33.8019 45.5027 33.8019C53.9908 33.8019 61.2734 36.6899 67.3507 42.4658C73.428 48.1915 76.4666 55.223 76.4666 63.5605V95.4016H63.2071V63.1838C63.2071 58.5128 61.4241 54.5952 57.8581 51.431C54.3423 48.2166 50.1736 46.6094 45.352 46.6094C40.5304 46.6094 36.437 48.292 33.0719 51.6571C29.7068 55.0221 28.0243 59.1155 28.0243 63.9371C28.0243 68.9095 29.7068 73.1786 33.0719 76.7446C36.4872 80.2604 40.6559 82.0183 45.578 82.0183C48.5413 82.0183 51.0777 81.5662 53.1871 80.6622C55.3468 79.7079 57.381 78.1509 59.2895 75.9912Z" fill="white"/>
<path d="M95.2846 95.5522L81.1964 95.4769V59.9442C81.1964 54.9217 82.1005 50.5772 83.9086 46.9108C85.7669 43.2443 88.7051 40.055 92.7231 37.3428C95.1842 35.6854 97.4946 34.5051 99.6542 33.8019C101.814 33.0486 104.175 32.6719 106.736 32.6719C107.389 32.6719 108.167 32.7221 109.071 32.8226C109.976 32.8728 111.005 32.9983 112.16 33.1992V46.5341C110.905 46.1825 109.599 46.0067 108.243 46.0067C105.631 46.0067 103.12 46.8856 100.709 48.6435C98.9511 49.8992 97.595 51.3306 96.6407 52.9378C95.7367 54.545 95.2846 56.4033 95.2846 58.5128V95.5522Z" fill="white"/>
<circle cx="111.664" cy="87.9432" r="7.38462" fill="#F6CB01"/>
</svg>
