<svg width="71" height="59" viewBox="0 0 71 59" fill="none" xmlns="http://www.w3.org/2000/svg">
<g clip-path="url(#clip0_1_2309)">
<path d="M33.3492 59C48.8353 59 61.3893 58.3619 61.3893 57.5749C61.3893 56.7878 48.8353 56.1497 33.3492 56.1497C17.8631 56.1497 5.30908 56.7878 5.30908 57.5749C5.30908 58.3619 17.8631 59 33.3492 59Z" fill="#F2F2F2"/>
<path d="M49.7313 13.6929H49.4127V5.01978C49.4127 3.68846 48.8806 2.41165 47.9335 1.47026C46.9863 0.528871 45.7017 1.46989e-06 44.3622 0H25.8743C24.5348 -2.51978e-06 23.2502 0.528862 22.303 1.47025C21.3558 2.41164 20.8237 3.68844 20.8237 5.01976V52.6013C20.8237 53.9326 21.3558 55.2094 22.303 56.1508C23.2502 57.0922 24.5348 57.6211 25.8743 57.6211H44.3622C45.7016 57.6211 46.9863 57.0922 47.9334 56.1508C48.8806 55.2094 49.4127 53.9326 49.4127 52.6013V19.8666H49.7313L49.7313 13.6929Z" fill="#3F3D56"/>
<path d="M48.3376 5.0548V52.5663C48.3376 53.5606 47.9402 54.5141 47.2328 55.2172C46.5255 55.9202 45.5661 56.3152 44.5657 56.3152H25.9892C24.9888 56.3152 24.0294 55.9202 23.3221 55.2172C22.6147 54.5141 22.2173 53.5606 22.2173 52.5663V5.0548C22.2173 4.06054 22.6147 3.107 23.3221 2.40395C24.0294 1.7009 24.9888 1.30593 25.9892 1.30591H28.2427C28.132 1.57636 28.0898 1.86972 28.1199 2.16018C28.15 2.45063 28.2515 2.72929 28.4154 2.97162C28.5793 3.21396 28.8005 3.41256 29.0598 3.54994C29.319 3.68733 29.6082 3.7593 29.902 3.75951H40.4935C40.7873 3.75929 41.0765 3.68733 41.3358 3.54994C41.595 3.41255 41.8163 3.21396 41.9802 2.97162C42.1441 2.72928 42.2455 2.45063 42.2756 2.16018C42.3057 1.86972 42.2636 1.57636 42.1528 1.30591H44.5657C45.5661 1.30593 46.5255 1.7009 47.2328 2.40395C47.9402 3.107 48.3376 4.06054 48.3376 5.0548Z" fill="white"/>
<path d="M42.3532 25.5416C42.2297 25.6057 42.1041 25.6664 41.9764 25.7237C41.8601 25.7759 41.7419 25.825 41.6219 25.8709C41.5781 25.8875 41.5335 25.9042 41.4889 25.9208C41.1362 26.0479 40.7739 26.1472 40.4055 26.2177C40.2231 26.2533 40.0383 26.2813 39.8511 26.3016C39.6966 26.319 39.5404 26.3314 39.3827 26.3388C39.2704 26.3444 39.158 26.3468 39.0449 26.3468C38.597 26.3469 38.15 26.3053 37.7099 26.2225C37.5951 26.2019 37.4828 26.1773 37.3705 26.1504C36.8272 26.021 36.3012 25.828 35.8036 25.5756C35.759 25.5534 35.7144 25.5297 35.6698 25.5067C35.6036 25.4719 35.5391 25.4355 35.4746 25.3975C35.5056 25.3547 35.5391 25.3127 35.5734 25.2716C35.9461 24.8125 36.412 24.4366 36.9407 24.1684C37.4694 23.9002 38.049 23.7458 38.6418 23.7151C39.2346 23.6845 39.8272 23.7784 40.381 23.9906C40.9349 24.2029 41.4375 24.5287 41.8561 24.947C42.0014 25.0919 42.1361 25.2469 42.2592 25.4109C42.2918 25.4537 42.3229 25.4972 42.3532 25.5416Z" fill="#6C63FF"/>
<path d="M39.2039 22.0637C41.1357 22.0637 42.7017 20.5072 42.7017 18.5872C42.7017 16.6671 41.1357 15.1107 39.2039 15.1107C37.2721 15.1107 35.7061 16.6671 35.7061 18.5872C35.7061 20.5072 37.2721 22.0637 39.2039 22.0637Z" fill="#2F2E41"/>
<path d="M40.1343 22.0686C41.3959 21.3832 41.8595 19.811 41.1699 18.5571C40.4802 17.3032 38.8984 16.8424 37.6368 17.5278C36.3753 18.2133 35.9116 19.7854 36.6013 21.0393C37.2909 22.2932 38.8727 22.754 40.1343 22.0686Z" fill="#A0616A"/>
<path d="M41.6212 18.1707C41.0263 18.5782 40.3202 18.7951 39.5977 18.7922C39.8554 18.9698 40.1488 19.0898 40.4577 19.1439C39.4971 19.3487 38.5042 19.3542 37.5413 19.1602C37.3273 19.126 37.1208 19.0556 36.9308 18.9518C36.8362 18.8992 36.7537 18.8275 36.6888 18.7412C36.6239 18.6549 36.5779 18.556 36.554 18.4509C36.49 18.0876 36.7748 17.7575 37.0708 17.535C37.524 17.1997 38.0465 16.9686 38.6006 16.8586C39.1547 16.7485 39.7264 16.7623 40.2745 16.8988C40.6323 16.9907 40.9908 17.1461 41.2233 17.4317C41.4557 17.7173 41.5246 18.1577 41.3031 18.4518L41.6212 18.1707Z" fill="#2F2E41"/>
<path d="M39.0448 12.0955C37.4813 12.0952 35.9605 12.6031 34.7144 13.5417C33.4682 14.4802 32.565 15.798 32.1423 17.2942C31.7197 18.7904 31.8008 20.3828 32.3734 21.8289C32.9459 23.275 33.9784 24.4954 35.3136 25.3041L35.3598 25.331C35.398 25.3539 35.4363 25.3761 35.4745 25.3975C35.539 25.4355 35.6035 25.4719 35.6697 25.5067C35.7143 25.5297 35.7589 25.5534 35.8035 25.5756C36.3011 25.8281 36.8271 26.021 37.3704 26.1504C37.4827 26.1773 37.595 26.2019 37.7098 26.2225C38.1499 26.3053 38.5969 26.347 39.0448 26.3468C39.1579 26.3468 39.2703 26.3444 39.3826 26.3389C39.5403 26.3317 39.6965 26.3193 39.851 26.3016C40.0382 26.2811 40.223 26.2531 40.4054 26.2177C40.7738 26.1472 41.1361 26.048 41.4888 25.9208C41.5334 25.9042 41.578 25.8876 41.6218 25.8709C41.7421 25.825 41.8602 25.7759 41.9763 25.7237C42.1037 25.6667 42.2294 25.606 42.3531 25.5416C43.5932 24.8961 44.6182 23.9068 45.3037 22.6937C45.3068 22.6874 45.3109 22.681 45.314 22.6747C45.6798 22.0224 45.9392 21.3167 46.0827 20.5837C46.2843 19.5519 46.2537 18.4885 45.9934 17.4698C45.733 16.451 45.2492 15.5021 44.5766 14.6909C43.9041 13.8798 43.0594 13.2265 42.103 12.7778C41.1467 12.329 40.1024 12.0961 39.0448 12.0955H39.0448ZM45.1834 22.5821C45.177 22.5931 45.1714 22.6042 45.1651 22.6145C44.4933 23.8097 43.4827 24.7822 42.2591 25.4109C42.1372 25.4743 42.0132 25.5337 41.8871 25.5891C41.7827 25.6358 41.676 25.6801 41.5684 25.7213C41.523 25.7387 41.4768 25.7561 41.4306 25.772C41.1259 25.8826 40.8137 25.9715 40.4962 26.038C40.2608 26.0878 40.0228 26.1251 39.7833 26.1496C39.6359 26.1655 39.4861 26.1765 39.3356 26.1821C39.2392 26.186 39.142 26.1884 39.0448 26.1884C38.6113 26.1889 38.1787 26.1489 37.7528 26.0689C37.4936 26.0214 37.2375 25.959 36.9856 25.882C36.602 25.7642 36.2291 25.614 35.8712 25.4331C35.8298 25.4117 35.7884 25.3904 35.7477 25.3682C35.6896 25.3373 35.6306 25.3056 35.5733 25.2716C35.5302 25.2478 35.4872 25.2225 35.445 25.1972C35.4203 25.1829 35.3956 25.1679 35.3709 25.1528C34.2003 24.4383 33.2665 23.3979 32.6854 22.1607C32.1042 20.9235 31.9014 19.544 32.1019 18.1932C32.3024 16.8425 32.8976 15.58 33.8134 14.5623C34.7293 13.5447 35.9257 12.8167 37.254 12.4687C38.5824 12.1206 39.9844 12.1679 41.286 12.6046C42.5875 13.0413 43.7315 13.8482 44.5759 14.9251C45.4203 16.0021 45.928 17.3018 46.036 18.663C46.144 20.0241 45.8475 21.3868 45.1834 22.5821H45.1834Z" fill="#3F3D56"/>
<path d="M37.4326 15.1587C37.395 14.7653 36.9102 14.5232 36.5311 14.642C36.1519 14.7608 35.903 15.1402 35.8278 15.5282C35.7916 15.6916 35.7882 15.8605 35.8178 16.0251C35.8474 16.1898 35.9094 16.3471 36.0003 16.488C36.1919 16.7621 36.5441 16.9331 36.8725 16.8636C37.2475 16.7841 37.5073 16.4202 37.5816 16.0464C37.6559 15.6726 37.5821 15.2872 37.5084 14.9132L37.4326 15.1587Z" fill="#2F2E41"/>
<path d="M42.7681 15.7205C42.7305 15.3272 42.2457 15.0851 41.8665 15.2039C41.4874 15.3227 41.2385 15.7021 41.1632 16.0901C41.127 16.2535 41.1236 16.4223 41.1532 16.587C41.1828 16.7517 41.2448 16.909 41.3357 17.0498C41.5274 17.324 41.8795 17.495 42.208 17.4254C42.583 17.346 42.8427 16.9821 42.9171 16.6083C42.9914 16.2345 42.9176 15.8491 42.8439 15.4751L42.7681 15.7205Z" fill="#2F2E41"/>
<path d="M26.6527 22.0689C26.6031 22.0688 26.5541 22.0585 26.5087 22.0385C26.4634 22.0186 26.4227 21.9894 26.3893 21.9529L22.4365 17.667C22.3916 17.6185 22.3371 17.5797 22.2764 17.5532C22.2157 17.5266 22.1502 17.5129 22.0839 17.5128H1.19563C0.878638 17.5125 0.574732 17.3871 0.350585 17.1644C0.126438 16.9416 0.000355901 16.6395 0 16.3245V8.83758C0.00035569 8.52252 0.126438 8.22046 0.350585 7.99768C0.574732 7.7749 0.878638 7.64958 1.19563 7.64923H28.2579C28.5749 7.64958 28.8788 7.7749 29.103 7.99768C29.3271 8.22046 29.4532 8.52251 29.4536 8.83758V16.3245C29.4532 16.6395 29.3271 16.9416 29.103 17.1644C28.8788 17.3871 28.5749 17.5125 28.2579 17.5128H27.4907C27.3639 17.513 27.2423 17.5631 27.1526 17.6522C27.063 17.7414 27.0125 17.8622 27.0124 17.9882V21.712C27.0127 21.7839 26.991 21.8542 26.9501 21.9136C26.9093 21.9729 26.8513 22.0185 26.7837 22.0442C26.742 22.0605 26.6976 22.0688 26.6527 22.0689Z" fill="white"/>
<path d="M26.6527 22.0689C26.6031 22.0688 26.5541 22.0585 26.5087 22.0385C26.4634 22.0186 26.4227 21.9894 26.3893 21.9529L22.4365 17.667C22.3916 17.6185 22.3371 17.5797 22.2764 17.5532C22.2157 17.5266 22.1502 17.5129 22.0839 17.5128H1.19563C0.878638 17.5125 0.574732 17.3871 0.350585 17.1644C0.126438 16.9416 0.000355901 16.6395 0 16.3245V8.83758C0.00035569 8.52252 0.126438 8.22046 0.350585 7.99768C0.574732 7.7749 0.878638 7.64958 1.19563 7.64923H28.2579C28.5749 7.64958 28.8788 7.7749 29.103 7.99768C29.3271 8.22046 29.4532 8.52251 29.4536 8.83758V16.3245C29.4532 16.6395 29.3271 16.9416 29.103 17.1644C28.8788 17.3871 28.5749 17.5125 28.2579 17.5128H27.4907C27.3639 17.513 27.2423 17.5631 27.1526 17.6522C27.063 17.7414 27.0125 17.8622 27.0124 17.9882V21.712C27.0127 21.7839 26.991 21.8542 26.9501 21.9136C26.9093 21.9729 26.8513 22.0185 26.7837 22.0442C26.742 22.0605 26.6976 22.0688 26.6527 22.0689ZM1.19563 7.80758C0.920878 7.80789 0.657468 7.9165 0.463189 8.1096C0.26891 8.30269 0.159629 8.5645 0.159319 8.83758V16.3245C0.159629 16.5975 0.268912 16.8593 0.46319 17.0524C0.657469 17.2455 0.920878 17.3542 1.19563 17.3545H22.0839C22.1723 17.3546 22.2597 17.3729 22.3406 17.4082C22.4215 17.4436 22.4941 17.4953 22.5539 17.56L26.5068 21.8459C26.5339 21.8753 26.5694 21.8959 26.6085 21.905C26.6476 21.9141 26.6885 21.9112 26.726 21.8967C26.7634 21.8822 26.7956 21.8568 26.8182 21.8239C26.8409 21.791 26.8531 21.752 26.8531 21.712V17.9882C26.8532 17.8202 26.9205 17.6591 27.04 17.5403C27.1596 17.4215 27.3216 17.3547 27.4907 17.3545H28.2579C28.5327 17.3542 28.7961 17.2455 28.9904 17.0524C29.1846 16.8593 29.2939 16.5975 29.2942 16.3245V8.83758C29.2939 8.5645 29.1846 8.30269 28.9904 8.1096C28.7961 7.9165 28.5327 7.80789 28.2579 7.80758H1.19563Z" fill="#3F3D56"/>
<path d="M2.93294 10.9519C3.51076 10.9519 3.97917 10.4863 3.97917 9.91204C3.97917 9.33775 3.51076 8.87219 2.93294 8.87219C2.35513 8.87219 1.88672 9.33775 1.88672 9.91204C1.88672 10.4863 2.35513 10.9519 2.93294 10.9519Z" fill="#6C63FF"/>
<path d="M27.0372 15.6659H2.41607C2.34274 15.666 2.27011 15.6517 2.20234 15.6238C2.13456 15.596 2.07297 15.5552 2.02109 15.5037C1.9692 15.4522 1.92804 15.391 1.89996 15.3237C1.87188 15.2563 1.85742 15.1842 1.85742 15.1113C1.85742 15.0384 1.87188 14.9662 1.89996 14.8989C1.92804 14.8316 1.9692 14.7704 2.02109 14.7189C2.07297 14.6674 2.13456 14.6266 2.20234 14.5987C2.27011 14.5709 2.34274 14.5566 2.41607 14.5567H27.0372C27.1851 14.5569 27.3268 14.6154 27.4313 14.7194C27.5358 14.8234 27.5945 14.9643 27.5945 15.1113C27.5945 15.2583 27.5358 15.3992 27.4313 15.5032C27.3268 15.6072 27.1851 15.6657 27.0372 15.6659Z" fill="#E6E6E6"/>
<path d="M19.0161 13.3089H2.41607C2.34274 13.309 2.27011 13.2947 2.20234 13.2669C2.13456 13.2391 2.07297 13.1982 2.02109 13.1467C1.9692 13.0952 1.92804 13.0341 1.89996 12.9667C1.87188 12.8994 1.85742 12.8272 1.85742 12.7544C1.85742 12.6815 1.87188 12.6093 1.89996 12.542C1.92804 12.4746 1.9692 12.4135 2.02109 12.362C2.07297 12.3105 2.13456 12.2696 2.20234 12.2418C2.27011 12.214 2.34274 12.1997 2.41607 12.1998H19.0161C19.1641 12.1998 19.3061 12.2582 19.4107 12.3622C19.5153 12.4662 19.5741 12.6073 19.5741 12.7544C19.5741 12.9014 19.5153 13.0425 19.4107 13.1465C19.3061 13.2505 19.1641 13.3089 19.0161 13.3089Z" fill="#E6E6E6"/>
<path d="M44.2162 47.4591C44.1487 47.4333 44.0906 47.3877 44.0498 47.3284C44.009 47.2691 43.9873 47.1988 43.9876 47.1269V43.4031C43.9874 43.277 43.937 43.1562 43.8473 43.0671C43.7576 42.9779 43.6361 42.9278 43.5092 42.9277H42.742C42.425 42.9273 42.1211 42.802 41.897 42.5792C41.6728 42.3564 41.5467 42.0544 41.5464 41.7393V34.2524C41.5467 33.9374 41.6728 33.6353 41.897 33.4125C42.1211 33.1898 42.425 33.0644 42.742 33.0641H69.8043C70.1213 33.0644 70.4252 33.1898 70.6494 33.4125C70.8735 33.6353 70.9996 33.9374 70.9999 34.2524V41.7393C70.9996 42.0544 70.8735 42.3564 70.6494 42.5792C70.4252 42.802 70.1213 42.9273 69.8043 42.9277H48.9161C48.8498 42.9277 48.7842 42.9415 48.7235 42.968C48.6628 42.9945 48.6083 43.0333 48.5635 43.0818L44.6106 47.3678C44.5772 47.4042 44.5366 47.4334 44.4912 47.4534C44.4459 47.4733 44.3968 47.4837 44.3472 47.4837C44.3024 47.4837 44.2579 47.4753 44.2162 47.4591Z" fill="white"/>
<path d="M44.2162 47.4591C44.1487 47.4333 44.0906 47.3877 44.0498 47.3284C44.009 47.2691 43.9873 47.1988 43.9876 47.1269V43.4031C43.9874 43.277 43.937 43.1562 43.8473 43.0671C43.7576 42.9779 43.6361 42.9278 43.5092 42.9277H42.742C42.425 42.9273 42.1211 42.802 41.897 42.5792C41.6728 42.3564 41.5467 42.0544 41.5464 41.7393V34.2524C41.5467 33.9374 41.6728 33.6353 41.897 33.4125C42.1211 33.1898 42.425 33.0644 42.742 33.0641H69.8043C70.1213 33.0644 70.4252 33.1898 70.6494 33.4125C70.8735 33.6353 70.9996 33.9374 70.9999 34.2524V41.7393C70.9996 42.0544 70.8735 42.3564 70.6494 42.5792C70.4252 42.802 70.1213 42.9273 69.8043 42.9277H48.9161C48.8498 42.9277 48.7842 42.9415 48.7235 42.968C48.6628 42.9945 48.6083 43.0333 48.5635 43.0818L44.6106 47.3678C44.5772 47.4042 44.5366 47.4334 44.4912 47.4534C44.4459 47.4733 44.3968 47.4837 44.3472 47.4837C44.3024 47.4837 44.2579 47.4753 44.2162 47.4591ZM42.742 33.2224C42.4673 33.2227 42.2039 33.3314 42.0096 33.5245C41.8153 33.7175 41.706 33.9794 41.7057 34.2524V41.7393C41.706 42.0124 41.8153 42.2742 42.0096 42.4673C42.2039 42.6604 42.4673 42.769 42.742 42.7693H43.5092C43.6783 42.7695 43.8404 42.8363 43.9599 42.9552C44.0795 43.074 44.1467 43.2351 44.1469 43.4031V47.1269C44.1469 47.1668 44.159 47.2058 44.1817 47.2387C44.2044 47.2717 44.2365 47.2971 44.274 47.3115C44.3114 47.326 44.3524 47.3289 44.3915 47.3198C44.4306 47.3108 44.466 47.2902 44.4932 47.2608L48.446 42.9748C48.5058 42.9101 48.5785 42.8585 48.6594 42.8231C48.7403 42.7877 48.8277 42.7694 48.9161 42.7693H69.8043C70.0791 42.769 70.3425 42.6604 70.5368 42.4673C70.731 42.2742 70.8403 42.0124 70.8406 41.7393V34.2524C70.8403 33.9794 70.731 33.7175 70.5368 33.5245C70.3425 33.3314 70.0791 33.2227 69.8043 33.2224H42.742Z" fill="#3F3D56"/>
<path d="M35.7814 49.7775C34.6716 50.4838 33.3859 50.8689 32.0682 50.8898C30.7506 50.9106 29.4531 50.5663 28.3213 49.8955C28.5204 49.5271 28.7727 49.1897 29.0701 48.8939C29.529 48.4356 30.0876 48.088 30.7028 47.8777C31.318 47.6674 31.9735 47.6001 32.619 47.6809C33.2645 47.7617 33.8827 47.9885 34.4262 48.3438C34.9698 48.6992 35.4241 49.1737 35.7543 49.7308C35.7631 49.7458 35.7726 49.7617 35.7814 49.7775Z" fill="#6C63FF"/>
<path d="M31.7398 45.9914C33.6844 45.9914 35.2609 44.4245 35.2609 42.4917C35.2609 40.559 33.6844 38.9921 31.7398 38.9921C29.7952 38.9921 28.2188 40.559 28.2188 42.4917C28.2188 44.4245 29.7952 45.9914 31.7398 45.9914Z" fill="#2F2E41"/>
<path d="M34.3599 44.9602C35.0541 43.6979 34.5874 42.1153 33.3174 41.4253C32.0475 40.7353 30.4551 41.1992 29.7609 42.4615C29.0667 43.7237 29.5334 45.3063 30.8034 45.9963C32.0734 46.6863 33.6657 46.2224 34.3599 44.9602Z" fill="#FFB8B8"/>
<path d="M29.3066 42.0725C29.9055 42.4828 30.6163 42.7011 31.3436 42.6982C31.0842 42.877 30.7888 42.9978 30.4779 43.0522C31.4449 43.2584 32.4443 43.2639 33.4136 43.0686C33.6291 43.0343 33.837 42.9633 34.0282 42.8588C34.1235 42.8059 34.2065 42.7337 34.2718 42.6468C34.3372 42.5599 34.3834 42.4604 34.4075 42.3546C34.4719 41.9889 34.1852 41.6566 33.8872 41.4327C33.431 41.0951 32.905 40.8625 32.3473 40.7517C31.7896 40.6409 31.214 40.6547 30.6623 40.7922C30.3021 40.8847 29.9412 41.0411 29.7072 41.3286C29.4732 41.6162 29.4039 42.0595 29.6268 42.3556L29.3066 42.0725Z" fill="#2F2E41"/>
<path d="M31.9549 50.9699C30.2305 50.9693 28.5641 50.3509 27.2613 49.2279C25.9586 48.105 25.1069 46.5528 24.8624 44.8562C24.618 43.1596 24.9972 41.4323 25.9305 39.9911C26.8638 38.5499 28.2886 37.4914 29.9436 37.0099C31.5985 36.5284 33.3727 36.656 34.9406 37.3695C36.5086 38.0829 37.7651 39.3343 38.4798 40.8941C39.1945 42.4539 39.3194 44.2175 38.8316 45.8615C38.3438 47.5054 37.276 48.9194 35.8241 49.8441C34.6695 50.5799 33.3265 50.9707 31.9549 50.9699ZM31.9549 36.8769C30.5683 36.8768 29.2128 37.2853 28.0598 38.0509C26.9068 38.8165 26.0081 39.9048 25.4774 41.178C24.9467 42.4513 24.8078 43.8524 25.0783 45.2041C25.3488 46.5558 26.0165 47.7974 26.997 48.772C27.9775 49.7465 29.2267 50.4101 30.5867 50.679C31.9467 50.9478 33.3564 50.8098 34.6375 50.2823C35.9185 49.7548 37.0134 48.8616 37.7837 47.7156C38.554 46.5697 38.9651 45.2224 38.965 43.8442C38.9629 41.997 38.2237 40.226 36.9095 38.9199C35.5953 37.6137 33.8135 36.879 31.9549 36.8769Z" fill="#3F3D56"/>
<path d="M44.9134 36.2876C45.4912 36.2876 45.9596 35.822 45.9596 35.2477C45.9596 34.6734 45.4912 34.2079 44.9134 34.2079C44.3356 34.2079 43.8672 34.6734 43.8672 35.2477C43.8672 35.822 44.3356 36.2876 44.9134 36.2876Z" fill="#6C63FF"/>
<path d="M69.0177 41.0016H44.3965C44.3232 41.0017 44.2506 40.9874 44.1828 40.9595C44.115 40.9317 44.0534 40.8909 44.0016 40.8394C43.9497 40.7879 43.9085 40.7267 43.8804 40.6594C43.8523 40.592 43.8379 40.5199 43.8379 40.447C43.8379 40.3741 43.8523 40.3019 43.8804 40.2346C43.9085 40.1673 43.9497 40.1061 44.0016 40.0546C44.0534 40.0031 44.115 39.9622 44.1828 39.9344C44.2506 39.9066 44.3232 39.8923 44.3965 39.8924H69.0177C69.1656 39.8924 69.3076 39.9508 69.4122 40.0548C69.5168 40.1588 69.5756 40.2999 69.5756 40.447C69.5756 40.5941 69.5168 40.7351 69.4122 40.8391C69.3076 40.9431 69.1656 41.0016 69.0177 41.0016Z" fill="#E6E6E6"/>
<path d="M60.9966 38.6446H44.3965C44.3232 38.6447 44.2506 38.6304 44.1828 38.6026C44.115 38.5747 44.0534 38.5339 44.0016 38.4824C43.9497 38.4309 43.9085 38.3697 43.8804 38.3024C43.8523 38.235 43.8379 38.1629 43.8379 38.09C43.8379 38.0171 43.8523 37.9449 43.8804 37.8776C43.9085 37.8103 43.9497 37.7491 44.0016 37.6976C44.0534 37.6461 44.115 37.6053 44.1828 37.5774C44.2506 37.5496 44.3232 37.5353 44.3965 37.5354H60.9966C61.1445 37.5356 61.2862 37.5941 61.3907 37.6981C61.4952 37.8021 61.5539 37.943 61.5539 38.09C61.5539 38.237 61.4952 38.3779 61.3907 38.4819C61.2862 38.5859 61.1445 38.6444 60.9966 38.6446Z" fill="#E6E6E6"/>
<path d="M44.1824 48.1679C45.2605 48.1679 46.1344 48.0715 46.1344 47.9526C46.1344 47.8336 45.2605 47.7372 44.1824 47.7372C43.1044 47.7372 42.2305 47.8336 42.2305 47.9526C42.2305 48.0715 43.1044 48.1679 44.1824 48.1679Z" fill="#F2F2F2"/>
<path d="M26.7371 22.8323C27.8152 22.8323 28.6891 22.7359 28.6891 22.6169C28.6891 22.498 27.8152 22.4016 26.7371 22.4016C25.6591 22.4016 24.7852 22.498 24.7852 22.6169C24.7852 22.7359 25.6591 22.8323 26.7371 22.8323Z" fill="#F2F2F2"/>
</g>
<defs>
<clipPath id="clip0_1_2309">
<rect width="71" height="59" fill="white"/>
</clipPath>
</defs>
</svg>
