<svg width="110" height="110" viewBox="0 0 110 110" fill="none" xmlns="http://www.w3.org/2000/svg">
<circle cx="55" cy="55" r="55" fill="#FFDBD8"/>
<circle cx="54.9999" cy="55" r="45.2055" fill="#F5695D"/>
<path d="M59.1485 39.1851L55.5983 60.4918L52.0482 39.1851C51.963 38.6699 51.991 38.1424 52.1302 37.6391C52.2694 37.1358 52.5165 36.6688 52.8543 36.2706C53.1921 35.8724 53.6125 35.5525 54.0864 35.3331C54.5602 35.1137 55.0761 35 55.5983 35C56.1205 35 56.6365 35.1137 57.1103 35.3331C57.5842 35.5525 58.0046 35.8724 58.3424 36.2706C58.6802 36.6688 58.9272 37.1358 59.0665 37.6391C59.2057 38.1424 59.2337 38.6699 59.1485 39.1851Z" stroke="white" stroke-width="8" stroke-linecap="round" stroke-linejoin="round"/>
<path d="M55.598 78.9084C57.1628 78.9084 58.4313 77.6398 58.4313 76.075C58.4313 74.5102 57.1628 73.2417 55.598 73.2417C54.0332 73.2417 52.7646 74.5102 52.7646 76.075C52.7646 77.6398 54.0332 78.9084 55.598 78.9084Z" stroke="white" stroke-width="6"/>
</svg>
