<svg width="40" height="40" viewBox="0 0 40 40" fill="none" xmlns="http://www.w3.org/2000/svg">
<path d="M12.4997 27.5H22.583C22.233 28.2834 21.9663 29.1167 21.8163 30H12.4997C7.43301 30 3.33301 25.9 3.33301 20.8334C3.33301 15.7667 7.43301 11.6667 12.4997 11.6667H29.9997C33.683 11.6667 36.6663 14.65 36.6663 18.3334C36.6663 19.85 36.1497 21.2334 35.283 22.35C34.383 22 33.4163 21.7834 32.4163 21.7167C33.1366 21.2057 33.6756 20.4788 33.9551 19.6411C34.2345 18.8033 34.2401 17.8984 33.9709 17.0573C33.7016 16.2163 33.1717 15.4827 32.4577 14.963C31.7437 14.4433 30.8828 14.1644 29.9997 14.1667H12.4997C8.81634 14.1667 5.83301 17.15 5.83301 20.8334C5.83301 24.5167 8.81634 27.5 12.4997 27.5ZM15.833 22.5C14.9163 22.5 14.1663 21.75 14.1663 20.8334C14.1663 19.9167 14.9163 19.1667 15.833 19.1667H28.333V16.6667H15.833C14.7279 16.6667 13.6681 17.1057 12.8867 17.8871C12.1053 18.6685 11.6663 19.7283 11.6663 20.8334C11.6663 21.9384 12.1053 22.9982 12.8867 23.7796C13.6681 24.561 14.7279 25 15.833 25H24.233C25.1887 23.927 26.3657 23.074 27.683 22.5H15.833ZM33.333 30V25H29.9997V30H24.9997V33.3334H29.9997V38.3334H33.333V33.3334H38.333V30H33.333Z" fill="#111111"/>
</svg>
