<svg width="44" height="36" viewBox="0 0 44 36" fill="none" xmlns="http://www.w3.org/2000/svg">
<path d="M1.16699 18C1.16699 10.1438 1.16699 6.21462 3.60866 3.77504C6.04824 1.33337 9.97741 1.33337 17.8337 1.33337H26.167C34.0232 1.33337 37.9524 1.33337 40.392 3.77504C42.8337 6.21462 42.8337 10.1438 42.8337 18C42.8337 25.8563 42.8337 29.7855 40.392 32.225C37.9524 34.6667 34.0232 34.6667 26.167 34.6667H17.8337C9.97741 34.6667 6.04824 34.6667 3.60866 32.225C1.16699 29.7855 1.16699 25.8563 1.16699 18Z" stroke="black" stroke-width="2"/>
<path d="M17.8337 27.375H9.50033M13.667 21.125H9.50033M1.16699 13.8334H42.8337" stroke="black" stroke-width="2" stroke-linecap="round"/>
<path d="M26.167 24.25C26.167 22.2855 26.167 21.3042 26.7774 20.6938C27.3878 20.0834 28.3691 20.0834 30.3337 20.0834C32.2982 20.0834 33.2795 20.0834 33.8899 20.6938C34.5003 21.3042 34.5003 22.2855 34.5003 24.25C34.5003 26.2146 34.5003 27.1959 33.8899 27.8063C33.2795 28.4167 32.2982 28.4167 30.3337 28.4167C28.3691 28.4167 27.3878 28.4167 26.7774 27.8063C26.167 27.1959 26.167 26.2146 26.167 24.25Z" stroke="black" stroke-width="2"/>
</svg>
