<svg width="24" height="24" viewBox="0 0 24 24" fill="none" xmlns="http://www.w3.org/2000/svg">
<path d="M17.9946 21.8185C17.1558 21.8185 15.9776 21.5151 14.2133 20.5294C12.0679 19.3263 10.4084 18.2155 8.2746 16.0873C6.21726 14.0312 5.21608 12.7001 3.81487 10.1503C2.2319 7.27138 2.50175 5.76232 2.80339 5.11736C3.16261 4.3465 3.69284 3.88544 4.37819 3.42782C4.76747 3.17278 5.17942 2.95414 5.60882 2.7747C5.65179 2.75622 5.69175 2.73861 5.72741 2.72271C5.94011 2.62689 6.26237 2.48208 6.67058 2.63677C6.943 2.73903 7.1862 2.94829 7.56691 3.32427C8.34765 4.09427 9.41456 5.80915 9.80815 6.65134C10.0724 7.21896 10.2473 7.59364 10.2477 8.01388C10.2477 8.50587 10.0002 8.88529 9.69987 9.29478C9.64358 9.37169 9.58773 9.44517 9.53358 9.5165C9.20659 9.94618 9.13483 10.0704 9.1821 10.2921C9.27792 10.7377 9.99249 12.0641 11.1668 13.2359C12.3412 14.4076 13.6294 15.0771 14.0767 15.1725C14.3078 15.2219 14.4346 15.1471 14.878 14.8085C14.9416 14.76 15.0069 14.7097 15.0753 14.6594C15.5333 14.3187 15.8951 14.0776 16.3755 14.0776H16.3781C16.7962 14.0776 17.1541 14.259 17.7471 14.558C18.5205 14.9482 20.2869 16.0013 21.0617 16.7829C21.4385 17.1628 21.6486 17.4051 21.7513 17.6771C21.906 18.0866 21.7603 18.4076 21.6654 18.6224C21.6495 18.6581 21.6319 18.6972 21.6134 18.7406C21.4325 19.1692 21.2126 19.5803 20.9564 19.9686C20.4996 20.6518 20.0369 21.1808 19.2643 21.5404C18.8676 21.7281 18.4334 21.8232 17.9946 21.8185Z" fill="white"/>
</svg>
