<svg width="50" height="50" viewBox="0 0 50 50" fill="none" xmlns="http://www.w3.org/2000/svg">
<path d="M13.795 15.065L12.15 20H20V12.5H17.355C16.5674 12.4995 15.7997 12.7471 15.1607 13.2075C14.5217 13.6679 14.0439 14.3178 13.795 15.065ZM11.32 22.5L11.31 22.525L10.645 22.69L10.34 22.765C9.52843 22.968 8.80804 23.4366 8.29343 24.0961C7.77882 24.7557 7.49953 25.5684 7.5 26.405V30.625C7.5 31.025 7.625 31.4 7.8425 31.705C8.29147 30.4109 9.153 29.3 10.2947 28.5431C11.4364 27.7862 12.795 27.4251 14.1618 27.5154C15.5286 27.6057 16.828 28.1424 17.8601 29.0429C18.8923 29.9435 19.6002 31.1581 19.875 32.5H30.125C30.398 31.1567 31.1052 29.9403 32.1374 29.0384C33.1697 28.1364 34.4699 27.5989 35.8377 27.5085C37.2055 27.4181 38.5652 27.7799 39.7071 28.5382C40.8491 29.2965 41.7101 30.4093 42.1575 31.705C42.3809 31.3892 42.5006 31.0118 42.5 30.625V27.5925C42.5003 26.7658 42.2274 25.9622 41.7237 25.3066C41.2201 24.651 40.5139 24.1802 39.715 23.9675L34.2125 22.5H11.32ZM32.1825 20L29.085 14.43C28.7606 13.8456 28.286 13.3586 27.7102 13.0193C27.1344 12.6799 26.4783 12.5007 25.81 12.5H22.5V20H32.1825ZM45 30.625C45.0001 31.4638 44.759 32.2849 44.3056 32.9905C43.8522 33.6961 43.2055 34.2566 42.4425 34.605C42.2423 36.0677 41.5308 37.4123 40.434 38.4005C39.3373 39.3888 37.9261 39.9569 36.4506 40.0042C34.975 40.0515 33.5303 39.575 32.3725 38.659C31.2147 37.7431 30.4185 36.4468 30.125 35H19.875C19.5815 36.4468 18.7853 37.7431 17.6275 38.659C16.4697 39.575 15.025 40.0515 13.5494 40.0042C12.0739 39.9569 10.6627 39.3888 9.56596 38.4005C8.46922 37.4123 7.7577 36.0677 7.5575 34.605C6.79454 34.2566 6.14783 33.6961 5.69439 32.9905C5.24096 32.2849 4.99993 31.4638 5 30.625V26.405C4.99995 25.0763 5.42333 23.7822 6.20869 22.7105C6.99405 21.6388 8.10052 20.8452 9.3675 20.445L11.425 14.2725C11.84 13.0281 12.6361 11.9459 13.7004 11.1791C14.7647 10.4123 16.0432 9.99977 17.355 10H25.8075C26.9224 9.99976 28.017 10.2977 28.978 10.863C29.9389 11.4283 30.7311 12.2404 31.2725 13.215L35.1275 20.1575L40.36 21.5525C41.6909 21.9073 42.8673 22.6918 43.7063 23.7841C44.5454 24.8763 45.0002 26.2152 45 27.5925V30.625ZM13.75 30C12.7554 30 11.8016 30.3951 11.0983 31.0983C10.3951 31.8016 10 32.7554 10 33.75C10 34.7446 10.3951 35.6984 11.0983 36.4017C11.8016 37.1049 12.7554 37.5 13.75 37.5C14.7446 37.5 15.6984 37.1049 16.4017 36.4017C17.1049 35.6984 17.5 34.7446 17.5 33.75C17.5 32.7554 17.1049 31.8016 16.4017 31.0983C15.6984 30.3951 14.7446 30 13.75 30ZM36.25 30C35.2554 30 34.3016 30.3951 33.5983 31.0983C32.8951 31.8016 32.5 32.7554 32.5 33.75C32.5 34.7446 32.8951 35.6984 33.5983 36.4017C34.3016 37.1049 35.2554 37.5 36.25 37.5C37.2446 37.5 38.1984 37.1049 38.9016 36.4017C39.6049 35.6984 40 34.7446 40 33.75C40 32.7554 39.6049 31.8016 38.9016 31.0983C38.1984 30.3951 37.2446 30 36.25 30Z" fill="black"/>
</svg>
