<svg width="50" height="50" viewBox="0 0 50 50" fill="none" xmlns="http://www.w3.org/2000/svg">
<path d="M4.16602 25.0002C4.16602 17.1439 4.16602 13.2147 6.60768 10.7752C9.04727 8.3335 12.9764 8.3335 20.8327 8.3335H29.166C37.0223 8.3335 40.9514 8.3335 43.391 10.7752C45.8327 13.2147 45.8327 17.1439 45.8327 25.0002C45.8327 32.8564 45.8327 36.7856 43.391 39.2252C40.9514 41.6668 37.0223 41.6668 29.166 41.6668H20.8327C12.9764 41.6668 9.04727 41.6668 6.60768 39.2252C4.16602 36.7856 4.16602 32.8564 4.16602 25.0002Z" stroke="black" stroke-width="2"/>
<path d="M20.8327 34.3752H12.4993M16.666 28.1252H12.4993M4.16602 20.8335H45.8327" stroke="black" stroke-width="2" stroke-linecap="round"/>
<path d="M29.166 31.2502C29.166 29.2856 29.166 28.3043 29.7764 27.6939C30.3868 27.0835 31.3681 27.0835 33.3327 27.0835C35.2973 27.0835 36.2785 27.0835 36.8889 27.6939C37.4994 28.3043 37.4993 29.2856 37.4993 31.2502C37.4993 33.2147 37.4994 34.196 36.8889 34.8064C36.2785 35.4168 35.2973 35.4168 33.3327 35.4168C31.3681 35.4168 30.3868 35.4168 29.7764 34.8064C29.166 34.196 29.166 33.2147 29.166 31.2502Z" stroke="black" stroke-width="2"/>
</svg>
