<svg width="22" height="22" viewBox="0 0 22 22" fill="none" xmlns="http://www.w3.org/2000/svg">
<mask id="mask0_2932_4415" style="mask-type:luminance" maskUnits="userSpaceOnUse" x="0" y="0" width="21" height="21">
<path fill-rule="evenodd" clip-rule="evenodd" d="M0.916626 0.916992H20.6185V20.6196H0.916626V0.916992Z" fill="white"/>
</mask>
<g mask="url(#mask0_2932_4415)">
<path fill-rule="evenodd" clip-rule="evenodd" d="M5.59936 18.0357C6.13103 18.0357 6.63244 18.2374 7.16319 18.451C10.4146 19.9543 14.26 19.2705 16.7653 16.7662C20.0708 13.4588 20.0708 8.07891 16.7653 4.77341C15.1648 3.17291 13.0363 2.29199 10.7703 2.29199C8.50336 2.29199 6.37394 3.17383 4.77436 4.77433C2.26819 7.27866 1.58619 11.1241 3.07578 14.3443C3.29028 14.8751 3.49744 15.3921 3.49744 15.9292C3.49744 16.4655 3.31319 17.0054 3.15094 17.4821C3.01711 17.8744 2.81453 18.4666 2.94469 18.5967C3.07211 18.7287 3.66794 18.5207 4.06119 18.3859C4.53328 18.2246 5.06861 18.0394 5.59936 18.0357ZM10.7474 20.6198C9.34669 20.6198 7.93686 20.3237 6.61778 19.7132C6.22911 19.5574 5.86519 19.4107 5.60394 19.4107C5.30328 19.4126 4.89903 19.5519 4.50853 19.6867C3.70736 19.9617 2.71003 20.3045 1.97211 19.5693C1.23694 18.8332 1.57611 17.8387 1.84928 17.0384C1.98403 16.6442 2.12244 16.2372 2.12244 15.9292C2.12244 15.6762 2.00053 15.3536 1.81353 14.8888C0.0966099 11.1809 0.890443 6.71216 3.80269 3.80174C5.66169 1.94183 8.13578 0.916992 10.7694 0.916992C13.4029 0.916992 15.8779 1.94091 17.7369 3.80083C21.5796 7.64349 21.5796 13.8952 17.7369 17.7378C15.8532 19.6225 13.3168 20.6198 10.7474 20.6198Z" fill="#455A64"/>
</g>
<path fill-rule="evenodd" clip-rule="evenodd" d="M14.3882 12.0662C13.8822 12.0662 13.4679 11.6565 13.4679 11.1496C13.4679 10.6427 13.874 10.2329 14.38 10.2329H14.3882C14.8942 10.2329 15.3049 10.6427 15.3049 11.1496C15.3049 11.6565 14.8942 12.0662 14.3882 12.0662Z" fill="#455A64"/>
<path fill-rule="evenodd" clip-rule="evenodd" d="M10.7135 12.0662C10.2075 12.0662 9.79321 11.6565 9.79321 11.1496C9.79321 10.6427 10.1984 10.2329 10.7053 10.2329H10.7135C11.2195 10.2329 11.6302 10.6427 11.6302 11.1496C11.6302 11.6565 11.2195 12.0662 10.7135 12.0662Z" fill="#455A64"/>
<path fill-rule="evenodd" clip-rule="evenodd" d="M7.03838 12.0662C6.53238 12.0662 6.11804 11.6565 6.11804 11.1496C6.11804 10.6427 6.52413 10.2329 7.03013 10.2329H7.03838C7.54438 10.2329 7.95504 10.6427 7.95504 11.1496C7.95504 11.6565 7.54438 12.0662 7.03838 12.0662Z" fill="#455A64"/>
</svg>
