<svg width="24" height="25" viewBox="0 0 24 25" fill="none" xmlns="http://www.w3.org/2000/svg">
<mask id="mask0_1_3473" style="mask-type:luminance" maskUnits="userSpaceOnUse" x="2" y="2" width="21" height="21">
<path fill-rule="evenodd" clip-rule="evenodd" d="M2.00012 2.30664H22.0029V22.7158H2.00012V2.30664Z" fill="white"/>
</mask>
<g mask="url(#mask0_1_3473)">
<path fill-rule="evenodd" clip-rule="evenodd" d="M10.9448 20.7509C11.5348 21.3387 12.4848 21.3315 13.0708 20.7305L13.7928 19.9958C14.3528 19.4254 15.1268 19.0999 15.9158 19.0999H16.9458C17.7798 19.0999 18.4578 18.4081 18.4578 17.5581V16.5081C18.4578 15.6907 18.7678 14.9223 19.3338 14.3438L20.0538 13.6081C20.3468 13.3081 20.5038 12.9193 20.5028 12.507C20.5018 12.0958 20.3428 11.7091 20.0558 11.4172L19.3348 10.6805C18.7678 10.0979 18.4578 9.3305 18.4578 8.51316V7.4652C18.4578 6.61418 17.7798 5.92234 16.9458 5.92234H15.9178C15.1168 5.92234 14.3638 5.60499 13.7968 5.0305L13.0748 4.29275C12.4738 3.68561 11.5148 3.68867 10.9278 4.29173L10.2088 5.02744C9.63484 5.60601 8.88184 5.92234 8.08384 5.92234H7.05484C6.22184 5.92336 5.54384 6.6152 5.54384 7.4652V8.51112C5.54384 9.32846 5.23284 10.0968 4.66884 10.6764L3.95884 11.4019C3.95184 11.4101 3.94484 11.4162 3.93784 11.4234C3.35084 12.0264 3.35384 13.005 3.94484 13.604L4.66684 14.3407C5.23284 14.9203 5.54384 15.6887 5.54384 16.506V17.5581C5.54384 18.4081 6.22084 19.0999 7.05484 19.0999H8.08184C8.88384 19.1009 9.63684 19.4183 10.2038 19.9948L10.9248 20.7285C10.9308 20.7356 10.9378 20.7428 10.9448 20.7509ZM11.9988 22.7162C11.2318 22.7162 10.4648 22.4203 9.87784 21.8264C9.86984 21.8183 9.86184 21.8101 9.85384 21.8009L9.14384 21.0774C8.86084 20.7907 8.48284 20.6315 8.08084 20.6305H7.05484C5.39384 20.6305 4.04384 19.2519 4.04384 17.5581V16.506C4.04384 16.0958 3.88684 15.7111 3.60484 15.4213L2.88584 14.6887C1.71784 13.503 1.70384 11.5723 2.85084 10.3683C2.85984 10.3591 2.86884 10.3499 2.87784 10.3407L3.60584 9.59581C3.88684 9.30703 4.04384 8.9203 4.04384 8.51112V7.4652C4.04384 5.77132 5.39384 4.39275 7.05384 4.39173H8.08384C8.48484 4.39173 8.86284 4.23152 9.14984 3.94275L9.86484 3.21112C11.0338 2.0101 12.9448 2.00397 14.1238 3.19989L14.8548 3.94581C15.1378 4.23255 15.5158 4.39173 15.9178 4.39173H16.9458C18.6068 4.39173 19.9578 5.7703 19.9578 7.4652V8.51316C19.9578 8.92234 20.1138 9.30908 20.3968 9.59989L21.1148 10.3336C21.6838 10.9101 21.9998 11.6805 22.0028 12.5019C22.0058 13.3234 21.6948 14.0958 21.1278 14.6785L20.3948 15.4244C20.1138 15.7132 19.9578 16.0979 19.9578 16.5081V17.5581C19.9578 19.2519 18.6068 20.6305 16.9468 20.6305H15.9158C15.5198 20.6305 15.1328 20.7938 14.8518 21.0785L14.1338 21.8111C13.5468 22.4142 12.7728 22.7162 11.9988 22.7162Z" fill="#111111"/>
</g>
<path fill-rule="evenodd" clip-rule="evenodd" d="M9.43029 15.8998C9.23829 15.8998 9.04629 15.8253 8.90029 15.6753C8.60729 15.3763 8.60729 14.8927 8.90029 14.5937L14.0403 9.34777C14.3333 9.04879 14.8083 9.04879 15.1013 9.34777C15.3943 9.64675 15.3943 10.1314 15.1013 10.4304L9.96029 15.6753C9.81429 15.8253 9.62229 15.8998 9.43029 15.8998Z" fill="#111111"/>
<path fill-rule="evenodd" clip-rule="evenodd" d="M14.5034 16.0813C13.9504 16.0813 13.4984 15.6252 13.4984 15.0609C13.4984 14.4966 13.9414 14.0405 14.4944 14.0405H14.5034C15.0564 14.0405 15.5034 14.4966 15.5034 15.0609C15.5034 15.6252 15.0564 16.0813 14.5034 16.0813Z" fill="#111111"/>
<path fill-rule="evenodd" clip-rule="evenodd" d="M9.50341 10.9793C8.95041 10.9793 8.49841 10.5232 8.49841 9.95888C8.49841 9.3946 8.94141 8.93848 9.49441 8.93848H9.50341C10.0564 8.93848 10.5034 9.3946 10.5034 9.95888C10.5034 10.5232 10.0564 10.9793 9.50341 10.9793Z" fill="#111111"/>
</svg>
