<svg width="36" height="22" viewBox="0 0 36 22" fill="none" xmlns="http://www.w3.org/2000/svg">
<path d="M34.3562 8.0217H34.6902C34.7836 8.02826 34.8774 8.01549 34.9657 7.98419C35.0539 7.95288 35.1348 7.90372 35.2032 7.83977C35.2717 7.77582 35.3262 7.69845 35.3634 7.61249C35.4006 7.52653 35.4196 7.43383 35.4194 7.34017V3.0056C35.4176 2.20903 35.1004 1.4456 34.5371 0.882331C33.9738 0.319067 33.2104 0.00183105 32.4138 3.08761e-05H10.0322C10.054 0.0683739 10.0655 0.139581 10.0663 0.211307V1.15183C10.0655 1.22355 10.054 1.29476 10.0322 1.3631C9.99017 1.5273 9.89467 1.67283 9.76079 1.77675C9.6269 1.88068 9.46223 1.93709 9.29274 1.93709C9.12325 1.93709 8.95858 1.88068 8.82469 1.77675C8.6908 1.67283 8.59531 1.5273 8.55327 1.3631C8.53149 1.29476 8.52 1.22355 8.5192 1.15183V0.211307C8.52 0.139581 8.53149 0.0683739 8.55327 3.08761e-05H3.02602C2.62985 -0.00176275 2.23723 0.0746055 1.87062 0.224763C1.50401 0.37492 1.17061 0.595917 0.889533 0.8751C0.608451 1.15428 0.385199 1.48617 0.23256 1.85175C0.0799205 2.21733 0.00089225 2.60944 0 3.0056V7.36062C0.000300622 7.45407 0.0198163 7.54646 0.0573345 7.63204C0.0948528 7.71763 0.149572 7.79459 0.218092 7.85814C0.286685 7.921 0.367423 7.96915 0.455332 7.99963C0.543241 8.0301 0.636459 8.04225 0.729243 8.03534H1.0632C1.83904 8.0405 2.58224 8.34821 3.13465 8.89299C3.68707 9.43777 4.0051 10.1766 4.02106 10.9523C4.00262 11.6236 3.76771 12.2709 3.35135 12.7978C2.935 13.3247 2.35949 13.703 1.71065 13.8761C1.39079 13.973 1.05443 14.0032 0.722428 13.9647C0.63076 13.9587 0.53883 13.9713 0.452161 14.0018C0.365493 14.0322 0.285875 14.0799 0.218092 14.1419C0.149572 14.2054 0.0948528 14.2824 0.0573345 14.368C0.0198163 14.4536 0.000300622 14.546 0 14.6394V18.9944C0.00180017 19.791 0.319036 20.5544 0.8823 21.1177C1.44556 21.681 2.209 21.9982 3.00557 22H8.53283C8.51104 21.9317 8.49956 21.8604 8.49875 21.7887V20.8346C8.49956 20.7628 8.51104 20.6916 8.53283 20.6233C8.57487 20.4591 8.67036 20.3136 8.80425 20.2096C8.93814 20.1057 9.1028 20.0493 9.27229 20.0493C9.44178 20.0493 9.60645 20.1057 9.74034 20.2096C9.87423 20.3136 9.96972 20.4591 10.0118 20.6233C10.0335 20.6916 10.045 20.7628 10.0458 20.8346V21.7751C10.045 21.8468 10.0335 21.918 10.0118 21.9864H32.4138C32.81 21.9882 33.2026 21.9118 33.5692 21.7616C33.9359 21.6115 34.2692 21.3905 34.5503 21.1113C34.8314 20.8321 35.0547 20.5002 35.2073 20.1346C35.3599 19.7691 35.439 19.377 35.4399 18.9808V14.6258C35.4396 14.5323 35.42 14.4399 35.3825 14.3544C35.345 14.2688 35.2903 14.1918 35.2218 14.1283C35.154 14.0663 35.0744 14.0186 34.9877 13.9882C34.901 13.9577 34.8091 13.9451 34.7174 13.9511C34.3854 13.9897 34.049 13.9596 33.7292 13.8625C33.0857 13.6948 32.5126 13.3261 32.0933 12.81C31.6741 12.2939 31.4306 11.6574 31.3983 10.9932V10.9387C31.4143 10.163 31.7323 9.42414 32.2848 8.87936C32.8372 8.33458 33.5804 8.02687 34.3562 8.0217ZM10.0663 17.6518C10.0482 17.8444 9.95886 18.0234 9.8158 18.1536C9.67273 18.2839 9.48622 18.3561 9.29274 18.3561C9.09926 18.3561 8.91275 18.2839 8.76968 18.1536C8.62662 18.0234 8.5373 17.8444 8.5192 17.6518V16.7113C8.50908 16.6036 8.52155 16.495 8.55583 16.3924C8.5901 16.2898 8.64541 16.1955 8.71823 16.1155C8.79104 16.0356 8.87975 15.9717 8.97868 15.9279C9.07761 15.8842 9.18458 15.8616 9.29274 15.8616C9.4009 15.8616 9.50787 15.8842 9.6068 15.9279C9.70572 15.9717 9.79444 16.0356 9.86725 16.1155C9.94007 16.1955 9.99538 16.2898 10.0297 16.3924C10.0639 16.495 10.0764 16.6036 10.0663 16.7113V17.6518ZM10.0663 13.5285C10.0482 13.7211 9.95886 13.9001 9.8158 14.0303C9.67273 14.1606 9.48622 14.2328 9.29274 14.2328C9.09926 14.2328 8.91275 14.1606 8.76968 14.0303C8.62662 13.9001 8.5373 13.7211 8.5192 13.5285V12.588C8.50908 12.4803 8.52155 12.3717 8.55583 12.2691C8.5901 12.1665 8.64541 12.0722 8.71823 11.9922C8.79104 11.9123 8.87975 11.8484 8.97868 11.8047C9.07761 11.7609 9.18458 11.7384 9.29274 11.7384C9.4009 11.7384 9.50787 11.7609 9.6068 11.8047C9.70572 11.8484 9.79444 11.9123 9.86725 11.9922C9.94007 12.0722 9.99538 12.1665 10.0297 12.2691C10.0639 12.3717 10.0764 12.4803 10.0663 12.588V13.5285ZM10.0663 9.39841C10.0764 9.50609 10.0639 9.6147 10.0297 9.71729C9.99538 9.81987 9.94007 9.91417 9.86725 9.99415C9.79444 10.0741 9.70572 10.138 9.6068 10.1817C9.50787 10.2255 9.4009 10.248 9.29274 10.248C9.18458 10.248 9.07761 10.2255 8.97868 10.1817C8.87975 10.138 8.79104 10.0741 8.71823 9.99415C8.64541 9.91417 8.5901 9.81987 8.55583 9.71729C8.52155 9.6147 8.50908 9.50609 8.5192 9.39841V8.45789C8.5373 8.26526 8.62662 8.08632 8.76968 7.95606C8.91275 7.82581 9.09926 7.75363 9.29274 7.75363C9.48622 7.75363 9.67273 7.82581 9.8158 7.95606C9.95886 8.08632 10.0482 8.26526 10.0663 8.45789V9.39841ZM10.0663 5.27512C10.0764 5.3828 10.0639 5.49141 10.0297 5.594C9.99538 5.69658 9.94007 5.79088 9.86725 5.87086C9.79444 5.95084 9.70572 6.01473 9.6068 6.05845C9.50787 6.10217 9.4009 6.12475 9.29274 6.12475C9.18458 6.12475 9.07761 6.10217 8.97868 6.05845C8.87975 6.01473 8.79104 5.95084 8.71823 5.87086C8.64541 5.79088 8.5901 5.69658 8.55583 5.594C8.52155 5.49141 8.50908 5.3828 8.5192 5.27512V4.3346C8.5373 4.14197 8.62662 3.96302 8.76968 3.83277C8.91275 3.70252 9.09926 3.63033 9.29274 3.63033C9.48622 3.63033 9.67273 3.70252 9.8158 3.83277C9.95886 3.96302 10.0482 4.14197 10.0663 4.3346V5.27512ZM15.171 5.92257C15.5184 5.57353 15.9617 5.33547 16.4445 5.23856C16.9274 5.14165 17.4281 5.19024 17.8834 5.37819C18.3386 5.56613 18.7278 5.88497 19.0016 6.2943C19.2754 6.70363 19.4216 7.18504 19.4216 7.67753C19.4216 8.17002 19.2754 8.65142 19.0016 9.06076C18.7278 9.47009 18.3386 9.78893 17.8834 9.97687C17.4281 10.1648 16.9274 10.2134 16.4445 10.1165C15.9617 10.0196 15.5184 9.78152 15.171 9.43248C14.7069 8.9663 14.4464 8.3353 14.4464 7.67753C14.4464 7.01976 14.7069 6.38876 15.171 5.92257ZM16.5341 15.4027C16.4439 15.4024 16.3547 15.3841 16.2716 15.349C16.1886 15.3139 16.1133 15.2627 16.0502 15.1983C15.9232 15.0706 15.852 14.8978 15.852 14.7178C15.852 14.5377 15.9232 14.365 16.0502 14.2373L23.4857 6.78813C23.5468 6.71678 23.622 6.65884 23.7066 6.61793C23.7911 6.57702 23.8832 6.55403 23.9771 6.55041C24.0709 6.54678 24.1645 6.5626 24.252 6.59686C24.3394 6.63112 24.4189 6.6831 24.4853 6.74952C24.5517 6.81593 24.6037 6.89537 24.638 6.98282C24.6722 7.07028 24.688 7.16388 24.6844 7.25774C24.6808 7.3516 24.6578 7.4437 24.6169 7.52825C24.576 7.61281 24.518 7.68799 24.4467 7.74909L16.9975 15.1983C16.9344 15.2627 16.8591 15.3139 16.776 15.349C16.693 15.3841 16.6038 15.4024 16.5136 15.4027H16.5341ZM25.3327 16.0843C24.8645 16.5515 24.2299 16.8137 23.5685 16.813C22.9071 16.8124 22.273 16.549 21.8057 16.0809C21.3385 15.6127 21.0763 14.9781 21.077 14.3167C21.0776 13.6553 21.341 13.0212 21.8091 12.5539C22.2812 12.1011 22.91 11.8483 23.5641 11.8483C24.2182 11.8483 24.847 12.1011 25.3191 12.5539C25.5505 12.7838 25.7341 13.0573 25.8594 13.3585C25.9848 13.6597 26.0493 13.9827 26.0493 14.3089C26.0493 14.6351 25.9848 14.9581 25.8594 15.2593C25.7341 15.5605 25.5505 15.8339 25.3191 16.0638L25.3327 16.0843ZM16.132 8.47152C15.9218 8.26072 15.8038 7.9752 15.8038 7.67753C15.8038 7.37986 15.9218 7.09433 16.132 6.88354C16.2358 6.77976 16.3591 6.69746 16.4947 6.64133C16.6303 6.5852 16.7757 6.55634 16.9225 6.5564C17.1081 6.5549 17.2912 6.59935 17.4554 6.68579C17.6196 6.77223 17.7599 6.89797 17.8637 7.0518C17.9676 7.20563 18.0317 7.38277 18.0504 7.56741C18.0692 7.75205 18.0419 7.93845 17.9711 8.11C17.9003 8.28154 17.7881 8.43289 17.6446 8.55055C17.5011 8.66821 17.3306 8.74852 17.1485 8.78432C16.9664 8.82011 16.7783 8.81028 16.6009 8.7557C16.4235 8.70113 16.2624 8.60349 16.132 8.47152ZM24.3513 13.5149C24.5614 13.7257 24.6795 14.0112 24.6795 14.3089C24.6795 14.6065 24.5614 14.8921 24.3513 15.1029C24.1371 15.3066 23.8529 15.4203 23.5573 15.4203C23.2617 15.4203 22.9774 15.3066 22.7633 15.1029C22.5531 14.8921 22.4351 14.6065 22.4351 14.3089C22.4351 14.0112 22.5531 13.7257 22.7633 13.5149C22.8669 13.4108 22.9901 13.3283 23.1258 13.2721C23.2615 13.216 23.407 13.1873 23.5539 13.1877C23.7018 13.1872 23.8483 13.2158 23.9852 13.2719C24.122 13.328 24.2464 13.4106 24.3513 13.5149Z" fill="#4C41FC"/>
</svg>
