<svg width="40" height="40" viewBox="0 0 40 40" fill="none" xmlns="http://www.w3.org/2000/svg">
<path d="M25 13.3333H25.0167M20.8333 35H10C8.67392 35 7.40215 34.4732 6.46447 33.5355C5.52678 32.5979 5 31.3261 5 30V10C5 8.67392 5.52678 7.40215 6.46447 6.46447C7.40215 5.52678 8.67392 5 10 5H30C31.3261 5 32.5979 5.52678 33.5355 6.46447C34.4732 7.40215 35 8.67392 35 10V20.8333" stroke="#111111" stroke-width="3" stroke-linecap="round" stroke-linejoin="round"/>
<path d="M5 26.6666L13.3333 18.3333C14.88 16.845 16.7867 16.845 18.3333 18.3333L24.1667 24.1666" stroke="#111111" stroke-width="3" stroke-linecap="round" stroke-linejoin="round"/>
<path d="M23.333 23.3333L24.9997 21.6667C26.1313 20.5783 27.4547 20.285 28.6897 20.79M31.6663 36.6667V26.6667M31.6663 26.6667L36.6663 31.6667M31.6663 26.6667L26.6663 31.6667" stroke="#111111" stroke-width="3" stroke-linecap="round" stroke-linejoin="round"/>
</svg>
