<svg width="20" height="20" viewBox="0 0 20 20" fill="none" xmlns="http://www.w3.org/2000/svg">
<path fill-rule="evenodd" clip-rule="evenodd" d="M9.43283 18.3334H5.36116C3.32449 18.3334 1.66699 16.6759 1.66699 14.6376V5.36341C1.66699 3.32508 3.32449 1.66675 5.36116 1.66675H9.42366C11.462 1.66675 13.1203 3.32508 13.1203 5.36341V6.14008C13.1203 6.48508 12.8403 6.76508 12.4953 6.76508C12.1503 6.76508 11.8703 6.48508 11.8703 6.14008V5.36341C11.8703 4.01341 10.7728 2.91675 9.42366 2.91675H5.36116C4.01366 2.91675 2.91699 4.01341 2.91699 5.36341V14.6376C2.91699 15.9867 4.01366 17.0834 5.36116 17.0834H9.43283C10.7762 17.0834 11.8703 15.9901 11.8703 14.6467V13.8609C11.8703 13.5159 12.1503 13.2359 12.4953 13.2359C12.8403 13.2359 13.1203 13.5159 13.1203 13.8609V14.6467C13.1203 16.6801 11.4653 18.3334 9.43283 18.3334Z" fill="#111111"/>
<mask id="mask0_1_1336" style="mask-type:luminance" maskUnits="userSpaceOnUse" x="7" y="9" width="12" height="2">
<path fill-rule="evenodd" clip-rule="evenodd" d="M7.49683 9.375H18.7809V10.625H7.49683V9.375Z" fill="white"/>
</mask>
<g mask="url(#mask0_1_1336)">
<path fill-rule="evenodd" clip-rule="evenodd" d="M18.156 10.625H8.12183C7.77683 10.625 7.49683 10.345 7.49683 10C7.49683 9.655 7.77683 9.375 8.12183 9.375H18.156C18.501 9.375 18.781 9.655 18.781 10C18.781 10.345 18.501 10.625 18.156 10.625Z" fill="#111111"/>
</g>
<mask id="mask1_1_1336" style="mask-type:luminance" maskUnits="userSpaceOnUse" x="15" y="6" width="4" height="8">
<path fill-rule="evenodd" clip-rule="evenodd" d="M15.0916 6.94604H18.781V13.055H15.0916V6.94604Z" fill="white"/>
</mask>
<g mask="url(#mask1_1_1336)">
<path fill-rule="evenodd" clip-rule="evenodd" d="M15.7163 13.055C15.5563 13.055 15.3955 12.9942 15.2738 12.8708C15.0305 12.6258 15.0313 12.2308 15.2755 11.9875L17.2705 10L15.2755 8.01334C15.0313 7.77 15.0297 7.375 15.2738 7.13C15.5172 6.885 15.9122 6.885 16.1572 7.12834L18.5972 9.5575C18.7155 9.67417 18.7813 9.83417 18.7813 10C18.7813 10.1658 18.7155 10.3258 18.5972 10.4425L16.1572 12.8725C16.0355 12.9942 15.8755 13.055 15.7163 13.055Z" fill="#111111"/>
</g>
</svg>
