<svg width="44" height="44" viewBox="0 0 44 44" fill="none" xmlns="http://www.w3.org/2000/svg">
<path d="M25.0618 40.3334H24.9518C24.5483 40.309 24.1641 40.152 23.8591 39.8868C23.554 39.6215 23.3452 39.2629 23.2651 38.8667L20.4418 24.9884C20.3699 24.636 20.196 24.3126 19.9418 24.0584C19.6875 23.8041 19.3641 23.6302 19.0118 23.5584L5.13342 20.735C4.73645 20.6562 4.37673 20.4482 4.11034 20.1435C3.84395 19.8388 3.68588 19.4545 3.66076 19.0506C3.63565 18.6466 3.7449 18.2457 3.97149 17.9104C4.19809 17.575 4.52928 17.3241 4.91342 17.1967L34.2468 7.42503C34.576 7.28907 34.9378 7.25199 35.2878 7.3183C35.6378 7.38462 35.9608 7.55147 36.2176 7.79845C36.4743 8.04543 36.6535 8.36184 36.7332 8.70902C36.813 9.0562 36.7899 9.4191 36.6668 9.75336L26.8951 39.0867C26.7675 39.4662 26.5193 39.7934 26.1882 40.0186C25.8572 40.2437 25.4615 40.3542 25.0618 40.3334Z" fill="white"/>
</svg>
