<svg width="20" height="20" viewBox="0 0 20 20" fill="none" xmlns="http://www.w3.org/2000/svg">
<mask id="mask0_1_1355" style="mask-type:luminance" maskUnits="userSpaceOnUse" x="2" y="0" width="16" height="16">
<path fill-rule="evenodd" clip-rule="evenodd" d="M2.5 0.833374H17.9141V15.29H2.5V0.833374Z" fill="white"/>
</mask>
<g mask="url(#mask0_1_1355)">
<path fill-rule="evenodd" clip-rule="evenodd" d="M10.2058 2.08337C7.29334 2.08337 5.26334 4.36504 5.26334 6.41254C5.26334 8.14504 4.78251 8.94587 4.35751 9.65254C4.01668 10.22 3.74751 10.6684 3.74751 11.6425C3.88668 13.2142 4.92418 14.04 10.2058 14.04C15.4583 14.04 16.5283 13.1775 16.6667 11.5884C16.6642 10.6684 16.395 10.22 16.0542 9.65254C15.6292 8.94587 15.1483 8.14504 15.1483 6.41254C15.1483 4.36504 13.1183 2.08337 10.2058 2.08337ZM10.2058 15.29C6.30918 15.29 2.78751 15.015 2.50001 11.6959C2.49751 10.3225 2.91668 9.62421 3.28668 9.00921C3.66084 8.38587 4.01334 7.79837 4.01334 6.41254C4.01334 3.71837 6.50168 0.833374 10.2058 0.833374C13.91 0.833374 16.3983 3.71837 16.3983 6.41254C16.3983 7.79837 16.7508 8.38587 17.125 9.00921C17.495 9.62421 17.9142 10.3225 17.9142 11.6425C17.6233 15.015 14.1025 15.29 10.2058 15.29Z" fill="black"/>
</g>
<path fill-rule="evenodd" clip-rule="evenodd" d="M10.1651 18.75H10.1634C9.22927 18.7492 8.3451 18.3375 7.67427 17.59C7.44344 17.3342 7.46427 16.9383 7.72094 16.7083C7.9776 16.4767 8.3726 16.4975 8.60344 16.755C9.0351 17.2358 9.58927 17.5 10.1643 17.5H10.1651C10.7426 17.5 11.2993 17.2358 11.7318 16.7542C11.9634 16.4983 12.3584 16.4775 12.6143 16.7083C12.8709 16.9392 12.8918 17.335 12.6609 17.5908C11.9876 18.3383 11.1018 18.75 10.1651 18.75Z" fill="#111111"/>
</svg>
