<svg width="36" height="36" viewBox="0 0 36 36" fill="none" xmlns="http://www.w3.org/2000/svg">
<path d="M31.7325 17.7848C31.7423 17.0343 31.3357 16.3445 30.6754 15.9824L15.2897 7.52899C14.6005 7.13951 13.7882 7.18736 13.1388 7.63078C12.4775 8.08167 12.1391 9.15502 12.3239 9.93025L13.7602 15.9479C13.9077 16.565 14.46 16.9995 15.0953 16.9968L23.6575 16.9702C24.0959 16.9614 24.4515 17.317 24.4427 17.7554C24.4414 18.1865 24.091 18.5368 23.6526 18.5456L15.0823 18.5655C14.4469 18.5667 13.892 19.0032 13.7407 19.6211L12.2536 25.6628C12.073 26.3767 12.2788 27.0894 12.7826 27.5932C12.8419 27.6524 12.9085 27.7191 12.9753 27.7709C13.6276 28.2742 14.482 28.3384 15.2114 27.9498L30.6494 19.5791C31.3119 19.2278 31.7227 18.5354 31.7325 17.7848" fill="white"/>
</svg>
