<svg width="20" height="20" viewBox="0 0 20 20" fill="none" xmlns="http://www.w3.org/2000/svg">
<mask id="mask0_1_1341" style="mask-type:luminance" maskUnits="userSpaceOnUse" x="1" y="1" width="17" height="18">
<path fill-rule="evenodd" clip-rule="evenodd" d="M1.66675 1.66699H17.7375V18.9345H1.66675V1.66699Z" fill="white"/>
</mask>
<g mask="url(#mask0_1_1341)">
<path fill-rule="evenodd" clip-rule="evenodd" d="M6.00201 14.5337C6.19285 14.5337 6.38368 14.5578 6.57035 14.6078C7.13368 14.7595 7.62285 15.1362 7.91285 15.642C8.10118 15.9595 8.20535 16.3303 8.20868 16.7087C8.20868 17.2503 8.64368 17.6845 9.17868 17.6845H10.2228C10.7553 17.6845 11.1903 17.2528 11.1928 16.7203C11.1895 16.132 11.4195 15.5728 11.8403 15.152C12.2553 14.737 12.8353 14.4878 13.4153 14.5045C13.7953 14.5137 14.1612 14.6162 14.4837 14.7995C14.9478 15.0653 15.5403 14.907 15.8087 14.4487L16.362 13.5262C16.4853 13.3137 16.5212 13.047 16.4553 12.8012C16.3903 12.5553 16.227 12.342 16.007 12.2162C15.492 11.9195 15.1245 11.4412 14.972 10.8678C14.8212 10.3053 14.9037 9.69116 15.1978 9.18533C15.3895 8.85199 15.6703 8.57116 16.007 8.37783C16.4587 8.11366 16.617 7.52283 16.3545 7.06283C16.3437 7.04449 16.3337 7.02533 16.3253 7.00533L15.837 6.15866C15.5712 5.69616 14.9795 5.53699 14.5153 5.80116C14.0137 6.09783 13.417 6.18283 12.8437 6.03199C12.2712 5.88366 11.7912 5.52116 11.492 5.00949C11.3003 4.68949 11.1962 4.31699 11.1928 3.93783C11.2003 3.65283 11.1003 3.39699 10.9187 3.20949C10.7378 3.02283 10.4837 2.91699 10.2228 2.91699H9.17868C8.92035 2.91699 8.67868 3.01783 8.49618 3.19949C8.31451 3.38199 8.21535 3.62449 8.21701 3.88283C8.19951 5.10116 7.20368 6.08199 5.99785 6.08199C5.61118 6.07783 5.23868 5.97366 4.91535 5.78033C4.46118 5.52199 3.86785 5.68116 3.60201 6.14366L3.03785 7.07116C2.77951 7.51949 2.93785 8.11199 3.39785 8.37949C4.08035 8.77449 4.50618 9.51116 4.50618 10.3012C4.50618 11.0912 4.08035 11.827 3.39618 12.2228C2.93868 12.4878 2.78035 13.077 3.04535 13.5353L3.57118 14.442C3.70118 14.6762 3.91368 14.8453 4.15951 14.9145C4.40451 14.9828 4.67451 14.9537 4.89951 14.8287C5.23035 14.6345 5.61535 14.5337 6.00201 14.5337ZM10.2228 18.9345H9.17868C7.95451 18.9345 6.95868 17.9395 6.95868 16.7153C6.95702 16.5645 6.91368 16.4078 6.83285 16.272C6.70201 16.0437 6.49035 15.8803 6.24618 15.8153C6.00368 15.7503 5.73785 15.7862 5.51951 15.9128C4.99618 16.2045 4.38035 16.2753 3.81701 16.117C3.25451 15.9578 2.76868 15.5712 2.48368 15.0587L1.96285 14.1612C1.35368 13.1045 1.71618 11.7503 2.77118 11.1403C3.07035 10.9678 3.25618 10.6462 3.25618 10.3012C3.25618 9.95616 3.07035 9.63366 2.77118 9.46116C1.71535 8.84783 1.35368 7.49033 1.96201 6.43366L2.52701 5.50616C3.12785 4.46116 4.48618 4.09283 5.54535 4.70116C5.68951 4.78699 5.84618 4.83033 6.00535 4.83199C6.52451 4.83199 6.95868 4.40366 6.96701 3.87699C6.96368 3.29616 7.19285 2.73866 7.61035 2.31783C8.02951 1.89783 8.58618 1.66699 9.17868 1.66699H10.2228C10.8195 1.66699 11.3995 1.91199 11.8153 2.33783C12.2303 2.76616 12.4595 3.35366 12.442 3.94949C12.4437 4.08366 12.4878 4.23866 12.5678 4.37449C12.7003 4.59949 12.9095 4.75783 13.1578 4.82283C13.4062 4.88449 13.6662 4.85116 13.887 4.72033C14.9537 4.11116 16.3112 4.47616 16.9203 5.53449L17.4395 6.43366C17.4528 6.45783 17.4645 6.48116 17.4745 6.50533C18.0262 7.54783 17.6578 8.86033 16.6328 9.45949C16.4837 9.54533 16.3628 9.66533 16.2795 9.81033C16.1503 10.0345 16.1145 10.3012 16.1795 10.5462C16.2462 10.7962 16.4053 11.0037 16.6295 11.132C17.1353 11.4228 17.5128 11.9128 17.6637 12.4787C17.8145 13.0437 17.732 13.657 17.4378 14.1628L16.8845 15.0845C16.2753 16.1312 14.9178 16.4937 13.862 15.8837C13.7212 15.8028 13.5587 15.7587 13.397 15.7545H13.392C13.1512 15.7545 12.9037 15.857 12.7237 16.0362C12.5412 16.2187 12.4412 16.462 12.4428 16.7203C12.437 17.9445 11.4412 18.9345 10.2228 18.9345Z" fill="#111111"/>
</g>
<path fill-rule="evenodd" clip-rule="evenodd" d="M9.70424 8.72876C8.83757 8.72876 8.13257 9.43459 8.13257 10.3013C8.13257 11.1679 8.83757 11.8721 9.70424 11.8721C10.5709 11.8721 11.2759 11.1679 11.2759 10.3013C11.2759 9.43459 10.5709 8.72876 9.70424 8.72876ZM9.70423 13.1221C8.1484 13.1221 6.88257 11.8571 6.88257 10.3013C6.88257 8.74543 8.1484 7.47876 9.70423 7.47876C11.2601 7.47876 12.5259 8.74543 12.5259 10.3013C12.5259 11.8571 11.2601 13.1221 9.70423 13.1221Z" fill="#111111"/>
</svg>
