<svg width="24" height="24" viewBox="0 0 24 24" fill="none" xmlns="http://www.w3.org/2000/svg">
<g clip-path="url(#clip0_10_5689)">
<path d="M7.4 5.99997H8.99V11C8.99 11.55 9.44 12 9.99 12H13.99C14.54 12 14.99 11.55 14.99 11V5.99997H16.58C17.47 5.99997 17.92 4.91997 17.29 4.28997L12.7 -0.300029C12.31 -0.690029 11.68 -0.690029 11.29 -0.300029L6.7 4.28997C6.07 4.91997 6.51 5.99997 7.4 5.99997ZM5 15C5 15.55 5.45 16 6 16H18C18.55 16 19 15.55 19 15C19 14.45 18.55 14 18 14H6C5.45 14 5 14.45 5 15Z" fill="#455A64"/>
</g>
<defs>
<clipPath id="clip0_10_5689">
<rect width="24" height="24" fill="white"/>
</clipPath>
</defs>
</svg>
