<svg width="40" height="30" viewBox="0 0 40 30" fill="none" xmlns="http://www.w3.org/2000/svg">
<path d="M8.795 5.065L7.15 10H15V2.5H12.355C11.5674 2.49955 10.7997 2.74708 10.1607 3.20748C9.5217 3.66788 9.04388 4.31778 8.795 5.065ZM6.32 12.5L6.31 12.525L5.645 12.69L5.34 12.765C4.52843 12.968 3.80804 13.4366 3.29343 14.0961C2.77882 14.7557 2.49953 15.5684 2.5 16.405V20.625C2.5 21.025 2.625 21.4 2.8425 21.705C3.29147 20.4109 4.153 19.3 5.29468 18.5431C6.43636 17.7862 7.79501 17.4251 9.16182 17.5154C10.5286 17.6057 11.828 18.1424 12.8601 19.0429C13.8923 19.9435 14.6002 21.1581 14.875 22.5H25.125C25.398 21.1567 26.1052 19.9403 27.1374 19.0384C28.1697 18.1364 29.4699 17.5989 30.8377 17.5085C32.2055 17.4181 33.5652 17.7799 34.7071 18.5382C35.8491 19.2965 36.7101 20.4093 37.1575 21.705C37.3809 21.3892 37.5006 21.0118 37.5 20.625V17.5925C37.5003 16.7658 37.2274 15.9622 36.7237 15.3066C36.2201 14.651 35.5139 14.1802 34.715 13.9675L29.2125 12.5H6.32ZM27.1825 10L24.085 4.43C23.7606 3.84564 23.286 3.35859 22.7102 3.01927C22.1344 2.67994 21.4783 2.50067 20.81 2.5H17.5V10H27.1825ZM40 20.625C40.0001 21.4638 39.759 22.2849 39.3056 22.9905C38.8522 23.6961 38.2055 24.2566 37.4425 24.605C37.2423 26.0677 36.5308 27.4123 35.434 28.4005C34.3373 29.3888 32.9261 29.9569 31.4506 30.0042C29.975 30.0515 28.5303 29.575 27.3725 28.659C26.2147 27.7431 25.4185 26.4468 25.125 25H14.875C14.5815 26.4468 13.7853 27.7431 12.6275 28.659C11.4697 29.575 10.025 30.0515 8.54944 30.0042C7.07388 29.9569 5.66271 29.3888 4.56596 28.4005C3.46922 27.4123 2.7577 26.0677 2.5575 24.605C1.79454 24.2566 1.14783 23.6961 0.694394 22.9905C0.240961 22.2849 -7.4197e-05 21.4638 1.71326e-08 20.625V16.405C-5.18154e-05 15.0763 0.42333 13.7822 1.20869 12.7105C1.99405 11.6388 3.10052 10.8452 4.3675 10.445L6.425 4.2725C6.84004 3.02813 7.63609 1.9459 8.70037 1.17909C9.76466 0.412277 11.0432 -0.000228261 12.355 1.49734e-07H20.8075C21.9224 -0.000243854 23.017 0.297734 23.978 0.863038C24.9389 1.42834 25.7311 2.24039 26.2725 3.215L30.1275 10.1575L35.36 11.5525C36.6909 11.9073 37.8673 12.6918 38.7063 13.7841C39.5454 14.8763 40.0002 16.2152 40 17.5925V20.625ZM8.75 20C7.75544 20 6.80161 20.3951 6.09835 21.0983C5.39509 21.8016 5 22.7554 5 23.75C5 24.7446 5.39509 25.6984 6.09835 26.4017C6.80161 27.1049 7.75544 27.5 8.75 27.5C9.74456 27.5 10.6984 27.1049 11.4017 26.4017C12.1049 25.6984 12.5 24.7446 12.5 23.75C12.5 22.7554 12.1049 21.8016 11.4017 21.0983C10.6984 20.3951 9.74456 20 8.75 20ZM31.25 20C30.2554 20 29.3016 20.3951 28.5983 21.0983C27.8951 21.8016 27.5 22.7554 27.5 23.75C27.5 24.7446 27.8951 25.6984 28.5983 26.4017C29.3016 27.1049 30.2554 27.5 31.25 27.5C32.2446 27.5 33.1984 27.1049 33.9016 26.4017C34.6049 25.6984 35 24.7446 35 23.75C35 22.7554 34.6049 21.8016 33.9016 21.0983C33.1984 20.3951 32.2446 20 31.25 20Z" fill="black"/>
</svg>
